<svg width="32" height="32" viewBox="0 0 32 32" fill="none" xmlns="http://www.w3.org/2000/svg">
<path d="M9.01329 29.3334H22.9866C26.6666 29.3334 28.1333 27.08 28.3066 24.3334L29 13.32C29.1866 10.44 26.8933 8.00002 24 8.00002C23.1866 8.00002 22.44 7.53335 22.0666 6.81335L21.1066 4.88002C20.4933 3.66669 18.8933 2.66669 17.5333 2.66669H14.48C13.1066 2.66669 11.5066 3.66669 10.8933 4.88002L9.93329 6.81335C9.55996 7.53335 8.81329 8.00002 7.99996 8.00002C5.10663 8.00002 2.81329 10.44 2.99996 13.32L3.69329 24.3334C3.85329 27.08 5.33329 29.3334 9.01329 29.3334Z" stroke="#5454D4" stroke-width="2" stroke-linecap="round" stroke-linejoin="round"/>
<path d="M14 10.6667H18" stroke="#5454D4" stroke-width="2" stroke-linecap="round" stroke-linejoin="round"/>
<path d="M16 24C18.3867 24 20.3334 22.0533 20.3334 19.6666C20.3334 17.28 18.3867 15.3333 16 15.3333C13.6134 15.3333 11.6667 17.28 11.6667 19.6666C11.6667 22.0533 13.6134 24 16 24Z" stroke="#5454D4" stroke-width="2" stroke-linecap="round" stroke-linejoin="round"/>
</svg>
