<svg width="32" height="32" viewBox="0 0 32 32" fill="none" xmlns="http://www.w3.org/2000/svg">
<path d="M17.3467 3.89338L25.2133 7.38672C27.48 8.38672 27.48 10.0401 25.2133 11.0401L17.3467 14.5334C16.4533 14.9334 14.9867 14.9334 14.0933 14.5334L6.22667 11.0401C3.96001 10.0401 3.96001 8.38672 6.22667 7.38672L14.0933 3.89338C14.9867 3.49338 16.4533 3.49338 17.3467 3.89338Z" stroke="#F04037" stroke-width="2" stroke-linecap="round" stroke-linejoin="round"/>
<path d="M4 14.6666C4 15.7866 4.84 17.08 5.86667 17.5333L14.92 21.56C15.6133 21.8666 16.4 21.8666 17.08 21.56L26.1333 17.5333C27.16 17.08 28 15.7866 28 14.6666" stroke="#F04037" stroke-width="2" stroke-linecap="round" stroke-linejoin="round"/>
<path d="M4 21.3334C4 22.5734 4.73333 23.6934 5.86667 24.2L14.92 28.2267C15.6133 28.5334 16.4 28.5334 17.08 28.2267L26.1333 24.2C27.2667 23.6934 28 22.5734 28 21.3334" stroke="#F04037" stroke-width="2" stroke-linecap="round" stroke-linejoin="round"/>
</svg>
